<svg width="24" height="26" viewBox="0 0 24 26" fill="none" xmlns="http://www.w3.org/2000/svg">
<path d="M4.5 25.5H20.75C21.413 25.5 22.0489 25.2366 22.5178 24.7678C22.9866 24.2989 23.25 23.663 23.25 23V3C23.25 2.33696 22.9866 1.70107 22.5178 1.23223C22.0489 0.763392 21.413 0.5 20.75 0.5H3.25C2.58696 0.5 1.95107 0.763392 1.48223 1.23223C1.01339 1.70107 0.75 2.33696 0.75 3V23C0.75 23.663 1.01339 24.2989 1.48223 24.7678C1.95107 25.2366 2.58696 25.5 3.25 25.5H4.5ZM12 4.24875C14.0588 4.24875 15.75 5.9375 15.75 7.99875C15.75 10.0588 14.0588 11.75 12 11.75C9.94125 11.75 8.25 10.0588 8.25 7.99875C8.25 5.9375 9.94125 4.24875 12 4.24875ZM4.5 19.5625C4.5 16.7887 7.88125 13.9375 12 13.9375C16.1187 13.9375 19.5 16.7887 19.5 19.5625V20.5H4.5V19.5625Z" fill="black"/>
</svg>
